<svg xmlns="http://www.w3.org/2000/svg" xmlns:xlink="http://www.w3.org/1999/xlink" width="500" zoomAndPan="magnify" viewBox="0 0 375 374.999991" height="500" preserveAspectRatio="xMidYMid meet" version="1.0"><defs><clipPath id="c15d536e1e"><path d="M 141.234375 263.074219 L 236.484375 263.074219 L 236.484375 325.324219 L 141.234375 325.324219 Z M 141.234375 263.074219 " clip-rule="nonzero"/></clipPath><clipPath id="ce514f379e"><path d="M 51.921875 34.394531 L 323.421875 34.394531 L 323.421875 281.894531 L 51.921875 281.894531 Z M 51.921875 34.394531 " clip-rule="nonzero"/></clipPath><clipPath id="58206a6ecb"><path d="M 104.617188 48.582031 L 270.367188 48.582031 L 270.367188 214.332031 L 104.617188 214.332031 Z M 104.617188 48.582031 " clip-rule="nonzero"/></clipPath><clipPath id="10fd5ceeeb"><path d="M 120.449219 63.226562 L 256.949219 63.226562 L 256.949219 199.726562 L 120.449219 199.726562 Z M 120.449219 63.226562 " clip-rule="nonzero"/></clipPath><clipPath id="b410f2b7c5"><path d="M 188.699219 63.226562 C 151.007812 63.226562 120.449219 93.78125 120.449219 131.476562 C 120.449219 169.167969 151.007812 199.726562 188.699219 199.726562 C 226.394531 199.726562 256.949219 169.167969 256.949219 131.476562 C 256.949219 93.78125 226.394531 63.226562 188.699219 63.226562 Z M 188.699219 63.226562 " clip-rule="nonzero"/></clipPath></defs><g clip-path="url(#c15d536e1e)"><path fill="#800080" d="M 188.691406 325.292969 C 187.132812 325.292969 185.578125 325.246094 184.027344 325.144531 C 182.472656 325.042969 180.933594 324.894531 179.40625 324.695312 C 177.875 324.496094 176.367188 324.25 174.875 323.953125 C 173.382812 323.660156 171.917969 323.316406 170.476562 322.925781 C 169.039062 322.535156 167.628906 322.101562 166.253906 321.621094 C 164.882812 321.140625 163.546875 320.617188 162.25 320.050781 C 160.953125 319.484375 159.703125 318.878906 158.5 318.234375 C 157.292969 317.585938 156.140625 316.902344 155.039062 316.183594 C 153.9375 315.460938 152.890625 314.707031 151.902344 313.921875 C 150.914062 313.132812 149.984375 312.316406 149.121094 311.46875 C 148.253906 310.621094 147.453125 309.75 146.71875 308.851562 C 145.984375 307.949219 145.316406 307.03125 144.722656 306.089844 C 144.125 305.148438 143.601562 304.191406 143.148438 303.214844 C 142.695312 302.242188 142.316406 301.253906 142.011719 300.253906 C 141.710938 299.253906 141.480469 298.246094 141.328125 297.234375 C 141.175781 296.21875 141.097656 295.203125 141.097656 294.183594 C 141.097656 293.164062 141.175781 292.148438 141.328125 291.136719 C 141.480469 290.121094 141.710938 289.113281 142.011719 288.117188 C 142.316406 287.117188 142.695312 286.128906 143.148438 285.152344 C 143.601562 284.179688 144.125 283.21875 144.722656 282.277344 C 145.316406 281.335938 145.984375 280.417969 146.71875 279.519531 C 147.453125 278.621094 148.253906 277.746094 149.121094 276.902344 C 149.984375 276.054688 150.914062 275.234375 151.902344 274.449219 C 152.890625 273.660156 153.9375 272.90625 155.039062 272.1875 C 156.140625 271.464844 157.292969 270.78125 158.5 270.136719 C 159.703125 269.488281 160.953125 268.882812 162.25 268.316406 C 163.546875 267.75 164.882812 267.226562 166.253906 266.746094 C 167.628906 266.269531 169.039062 265.832031 170.476562 265.441406 C 171.917969 265.050781 173.382812 264.710938 174.875 264.414062 C 176.367188 264.117188 177.875 263.871094 179.40625 263.671875 C 180.933594 263.472656 182.472656 263.324219 184.027344 263.222656 C 185.578125 263.125 187.132812 263.074219 188.691406 263.074219 C 190.25 263.074219 191.804688 263.125 193.355469 263.222656 C 194.90625 263.324219 196.445312 263.472656 197.976562 263.671875 C 199.503906 263.871094 201.015625 264.117188 202.503906 264.414062 C 203.996094 264.710938 205.460938 265.050781 206.902344 265.441406 C 208.34375 265.832031 209.75 266.269531 211.125 266.746094 C 212.5 267.226562 213.835938 267.75 215.128906 268.316406 C 216.425781 268.882812 217.675781 269.488281 218.882812 270.136719 C 220.085938 270.78125 221.242188 271.464844 222.34375 272.1875 C 223.445312 272.90625 224.488281 273.660156 225.480469 274.449219 C 226.46875 275.234375 227.394531 276.054688 228.261719 276.902344 C 229.125 277.746094 229.925781 278.621094 230.660156 279.519531 C 231.398438 280.417969 232.0625 281.335938 232.660156 282.277344 C 233.253906 283.21875 233.78125 284.179688 234.230469 285.152344 C 234.683594 286.128906 235.0625 287.117188 235.367188 288.117188 C 235.671875 289.113281 235.898438 290.121094 236.050781 291.136719 C 236.207031 292.148438 236.28125 293.164062 236.28125 294.183594 C 236.28125 295.203125 236.207031 296.21875 236.050781 297.234375 C 235.898438 298.246094 235.671875 299.253906 235.367188 300.253906 C 235.0625 301.253906 234.683594 302.242188 234.230469 303.214844 C 233.78125 304.191406 233.253906 305.148438 232.660156 306.089844 C 232.0625 307.03125 231.398438 307.949219 230.660156 308.851562 C 229.925781 309.75 229.125 310.621094 228.261719 311.46875 C 227.394531 312.316406 226.46875 313.132812 225.480469 313.921875 C 224.488281 314.707031 223.445312 315.460938 222.34375 316.183594 C 221.242188 316.902344 220.085938 317.585938 218.882812 318.234375 C 217.675781 318.878906 216.425781 319.484375 215.128906 320.050781 C 213.835938 320.617188 212.5 321.140625 211.125 321.621094 C 209.75 322.101562 208.34375 322.535156 206.902344 322.925781 C 205.460938 323.316406 203.996094 323.660156 202.503906 323.953125 C 201.015625 324.25 199.503906 324.496094 197.976562 324.695312 C 196.445312 324.894531 194.90625 325.042969 193.355469 325.144531 C 191.804688 325.246094 190.25 325.292969 188.691406 325.292969 Z M 188.691406 325.292969 " fill-opacity="1" fill-rule="nonzero"/></g><g clip-path="url(#ce514f379e)"><path fill="#a359a0" d="M 323.128906 130.921875 L 187.554688 281.542969 L 51.921875 130.921875 L 98.40625 34.710938 L 276.703125 34.710938 Z M 323.128906 130.921875 " fill-opacity="1" fill-rule="nonzero"/></g><g clip-path="url(#58206a6ecb)"><path fill="#800080" d="M 270.378906 131.464844 C 270.378906 132.820312 270.34375 134.175781 270.277344 135.53125 C 270.210938 136.886719 270.113281 138.238281 269.980469 139.585938 C 269.847656 140.9375 269.679688 142.28125 269.480469 143.625 C 269.28125 144.964844 269.050781 146.300781 268.785156 147.632812 C 268.523438 148.964844 268.226562 150.285156 267.894531 151.601562 C 267.566406 152.917969 267.203125 154.222656 266.808594 155.523438 C 266.417969 156.820312 265.992188 158.109375 265.535156 159.386719 C 265.078125 160.664062 264.589844 161.925781 264.070312 163.179688 C 263.550781 164.433594 263 165.671875 262.421875 166.898438 C 261.839844 168.125 261.230469 169.335938 260.59375 170.53125 C 259.953125 171.730469 259.285156 172.910156 258.585938 174.074219 C 257.890625 175.234375 257.164062 176.382812 256.410156 177.507812 C 255.65625 178.636719 254.875 179.746094 254.070312 180.835938 C 253.261719 181.925781 252.425781 182.992188 251.566406 184.042969 C 250.707031 185.089844 249.820312 186.117188 248.910156 187.121094 C 247.996094 188.128906 247.0625 189.109375 246.105469 190.070312 C 245.144531 191.027344 244.164062 191.964844 243.15625 192.875 C 242.152344 193.785156 241.125 194.671875 240.078125 195.53125 C 239.027344 196.390625 237.960938 197.226562 236.871094 198.035156 C 235.78125 198.84375 234.671875 199.621094 233.542969 200.375 C 232.417969 201.128906 231.269531 201.855469 230.105469 202.550781 C 228.945312 203.25 227.765625 203.917969 226.566406 204.558594 C 225.371094 205.195312 224.160156 205.808594 222.933594 206.386719 C 221.707031 206.964844 220.46875 207.515625 219.214844 208.035156 C 217.960938 208.554688 216.695312 209.042969 215.417969 209.5 C 214.144531 209.957031 212.855469 210.382812 211.558594 210.777344 C 210.257812 211.167969 208.953125 211.53125 207.636719 211.859375 C 206.320312 212.191406 204.996094 212.488281 203.667969 212.75 C 202.335938 213.015625 201 213.25 199.660156 213.445312 C 198.316406 213.644531 196.972656 213.8125 195.621094 213.945312 C 194.273438 214.078125 192.917969 214.179688 191.566406 214.246094 C 190.210938 214.3125 188.855469 214.34375 187.5 214.34375 C 186.140625 214.34375 184.785156 214.3125 183.429688 214.246094 C 182.078125 214.179688 180.722656 214.078125 179.375 213.945312 C 178.023438 213.8125 176.679688 213.644531 175.335938 213.445312 C 173.996094 213.25 172.660156 213.015625 171.328125 212.75 C 170 212.488281 168.675781 212.191406 167.359375 211.859375 C 166.042969 211.53125 164.738281 211.167969 163.4375 210.777344 C 162.140625 210.382812 160.851562 209.957031 159.578125 209.5 C 158.300781 209.042969 157.035156 208.554688 155.78125 208.035156 C 154.527344 207.515625 153.289062 206.964844 152.0625 206.386719 C 150.835938 205.808594 149.625 205.195312 148.429688 204.558594 C 147.230469 203.917969 146.050781 203.25 144.890625 202.550781 C 143.726562 201.855469 142.578125 201.128906 141.453125 200.375 C 140.324219 199.621094 139.214844 198.84375 138.125 198.035156 C 137.035156 197.226562 135.96875 196.390625 134.917969 195.53125 C 133.871094 194.671875 132.84375 193.785156 131.839844 192.875 C 130.832031 191.964844 129.851562 191.027344 128.890625 190.070312 C 127.933594 189.109375 127 188.128906 126.085938 187.121094 C 125.175781 186.117188 124.289062 185.089844 123.429688 184.042969 C 122.570312 182.992188 121.734375 181.925781 120.925781 180.835938 C 120.121094 179.746094 119.339844 178.636719 118.585938 177.507812 C 117.832031 176.382812 117.105469 175.234375 116.410156 174.074219 C 115.710938 172.910156 115.042969 171.730469 114.402344 170.53125 C 113.765625 169.335938 113.15625 168.125 112.574219 166.898438 C 111.996094 165.671875 111.445312 164.433594 110.925781 163.179688 C 110.40625 161.925781 109.917969 160.664062 109.460938 159.386719 C 109.003906 158.109375 108.578125 156.820312 108.1875 155.523438 C 107.792969 154.222656 107.429688 152.917969 107.101562 151.601562 C 106.773438 150.285156 106.472656 148.964844 106.210938 147.632812 C 105.945312 146.300781 105.714844 144.964844 105.515625 143.625 C 105.316406 142.28125 105.148438 140.9375 105.015625 139.585938 C 104.882812 138.238281 104.785156 136.886719 104.71875 135.53125 C 104.652344 134.175781 104.617188 132.820312 104.617188 131.464844 C 104.617188 130.105469 104.652344 128.75 104.71875 127.398438 C 104.785156 126.042969 104.882812 124.691406 105.015625 123.339844 C 105.148438 121.988281 105.316406 120.644531 105.515625 119.300781 C 105.714844 117.960938 105.945312 116.625 106.210938 115.292969 C 106.472656 113.964844 106.773438 112.640625 107.101562 111.324219 C 107.429688 110.007812 107.792969 108.703125 108.1875 107.40625 C 108.578125 106.105469 109.003906 104.820312 109.460938 103.542969 C 109.917969 102.265625 110.40625 101 110.925781 99.746094 C 111.445312 98.492188 111.996094 97.253906 112.574219 96.027344 C 113.15625 94.800781 113.765625 93.589844 114.402344 92.394531 C 115.042969 91.199219 115.710938 90.015625 116.410156 88.855469 C 117.105469 87.691406 117.832031 86.546875 118.585938 85.417969 C 119.339844 84.289062 120.121094 83.179688 120.925781 82.089844 C 121.734375 81 122.570312 79.933594 123.429688 78.882812 C 124.289062 77.835938 125.175781 76.808594 126.085938 75.804688 C 127 74.800781 127.933594 73.816406 128.890625 72.859375 C 129.851562 71.898438 130.832031 70.964844 131.839844 70.054688 C 132.84375 69.140625 133.871094 68.257812 134.917969 67.394531 C 135.96875 66.535156 137.035156 65.699219 138.125 64.894531 C 139.214844 64.085938 140.324219 63.304688 141.453125 62.550781 C 142.578125 61.796875 143.726562 61.070312 144.890625 60.375 C 146.050781 59.675781 147.230469 59.007812 148.429688 58.367188 C 149.625 57.730469 150.835938 57.121094 152.0625 56.539062 C 153.289062 55.960938 154.527344 55.410156 155.78125 54.890625 C 157.035156 54.371094 158.300781 53.882812 159.578125 53.425781 C 160.851562 52.96875 162.140625 52.546875 163.4375 52.152344 C 164.738281 51.757812 166.042969 51.394531 167.359375 51.066406 C 168.675781 50.738281 170 50.441406 171.328125 50.175781 C 172.660156 49.910156 173.996094 49.679688 175.335938 49.480469 C 176.679688 49.28125 178.023438 49.113281 179.375 48.980469 C 180.722656 48.847656 182.078125 48.75 183.429688 48.683594 C 184.785156 48.617188 186.140625 48.582031 187.5 48.582031 C 188.855469 48.582031 190.210938 48.617188 191.566406 48.683594 C 192.917969 48.75 194.273438 48.847656 195.621094 48.980469 C 196.972656 49.113281 198.316406 49.28125 199.660156 49.480469 C 201 49.679688 202.335938 49.910156 203.667969 50.175781 C 204.996094 50.441406 206.320312 50.738281 207.636719 51.066406 C 208.953125 51.394531 210.257812 51.757812 211.558594 52.152344 C 212.855469 52.546875 214.144531 52.96875 215.417969 53.425781 C 216.695312 53.882812 217.960938 54.371094 219.214844 54.890625 C 220.46875 55.410156 221.707031 55.960938 222.933594 56.539062 C 224.160156 57.121094 225.371094 57.730469 226.566406 58.367188 C 227.765625 59.007812 228.945312 59.675781 230.105469 60.375 C 231.269531 61.070312 232.417969 61.796875 233.542969 62.550781 C 234.671875 63.304688 235.78125 64.085938 236.871094 64.894531 C 237.960938 65.699219 239.027344 66.535156 240.078125 67.394531 C 241.125 68.257812 242.152344 69.140625 243.15625 70.054688 C 244.164062 70.964844 245.144531 71.898438 246.105469 72.859375 C 247.0625 73.816406 247.996094 74.800781 248.910156 75.804688 C 249.820312 76.808594 250.707031 77.835938 251.566406 78.882812 C 252.425781 79.933594 253.261719 81 254.070312 82.089844 C 254.875 83.179688 255.65625 84.289062 256.410156 85.417969 C 257.164062 86.546875 257.890625 87.691406 258.585938 88.855469 C 259.285156 90.015625 259.953125 91.199219 260.59375 92.394531 C 261.230469 93.589844 261.839844 94.800781 262.421875 96.027344 C 263 97.253906 263.550781 98.492188 264.070312 99.746094 C 264.589844 101 265.078125 102.265625 265.535156 103.542969 C 265.992188 104.820312 266.417969 106.105469 266.808594 107.40625 C 267.203125 108.703125 267.566406 110.007812 267.894531 111.324219 C 268.226562 112.640625 268.523438 113.964844 268.785156 115.292969 C 269.050781 116.625 269.28125 117.960938 269.480469 119.300781 C 269.679688 120.644531 269.847656 121.988281 269.980469 123.339844 C 270.113281 124.691406 270.210938 126.042969 270.277344 127.398438 C 270.34375 128.75 270.378906 130.105469 270.378906 131.464844 Z M 270.378906 131.464844 " fill-opacity="1" fill-rule="nonzero"/></g><g clip-path="url(#10fd5ceeeb)"><g clip-path="url(#b410f2b7c5)"><path fill="#a359a0" d="M 120.449219 63.226562 L 256.949219 63.226562 L 256.949219 199.726562 L 120.449219 199.726562 Z M 120.449219 63.226562 " fill-opacity="1" fill-rule="nonzero"/></g></g></svg>