<svg xmlns="http://www.w3.org/2000/svg" xmlns:xlink="http://www.w3.org/1999/xlink" width="500" zoomAndPan="magnify" viewBox="0 0 375 374.999991" height="500" preserveAspectRatio="xMidYMid meet" version="1.0"><defs><clipPath id="38e0eb6b96"><path d="M 162.628906 281.507812 L 215.128906 281.507812 L 215.128906 316 L 162.628906 316 Z M 162.628906 281.507812 " clip-rule="nonzero"/></clipPath><clipPath id="050462ba39"><path d="M 102.648438 64.886719 L 272.339844 64.886719 L 272.339844 298.710938 L 102.648438 298.710938 Z M 102.648438 64.886719 " clip-rule="nonzero"/></clipPath><clipPath id="75ef4f4e4b"><path d="M 187.496094 298.710938 L 102.648438 64.886719 L 272.339844 64.886719 Z M 187.496094 298.710938 " clip-rule="nonzero"/></clipPath><clipPath id="e335c79568"><path d="M 102.648438 12.769531 L 272.339844 12.769531 L 272.339844 62.21875 L 102.648438 62.21875 Z M 102.648438 12.769531 " clip-rule="nonzero"/></clipPath><clipPath id="95d578e229"><path d="M 233.101562 12.769531 L 141.890625 12.769531 L 102.648438 62.21875 L 272.339844 62.21875 Z M 233.101562 12.769531 " clip-rule="nonzero"/></clipPath><clipPath id="dd789760a4"><path d="M 138.246094 24.367188 L 239.496094 24.367188 L 239.496094 125.617188 L 138.246094 125.617188 Z M 138.246094 24.367188 " clip-rule="nonzero"/></clipPath><clipPath id="db3177c52f"><path d="M 145.75 33.070312 L 229 33.070312 L 229 116.320312 L 145.75 116.320312 Z M 145.75 33.070312 " clip-rule="nonzero"/></clipPath></defs><g clip-path="url(#38e0eb6b96)"><path fill="#800080" d="M 188.691406 315.921875 C 187.832031 315.921875 186.972656 315.894531 186.113281 315.839844 C 185.253906 315.785156 184.402344 315.699219 183.558594 315.589844 C 182.710938 315.480469 181.875 315.34375 181.050781 315.179688 C 180.226562 315.015625 179.414062 314.828125 178.621094 314.613281 C 177.824219 314.394531 177.042969 314.15625 176.285156 313.890625 C 175.523438 313.625 174.785156 313.335938 174.070312 313.023438 C 173.351562 312.707031 172.660156 312.375 171.992188 312.015625 C 171.328125 311.660156 170.6875 311.28125 170.078125 310.882812 C 169.46875 310.484375 168.890625 310.066406 168.34375 309.628906 C 167.796875 309.195312 167.285156 308.742188 166.804688 308.273438 C 166.328125 307.804688 165.882812 307.324219 165.476562 306.824219 C 165.070312 306.328125 164.703125 305.820312 164.371094 305.300781 C 164.042969 304.777344 163.753906 304.25 163.503906 303.710938 C 163.253906 303.167969 163.042969 302.625 162.875 302.070312 C 162.707031 301.519531 162.582031 300.960938 162.496094 300.402344 C 162.410156 299.839844 162.371094 299.277344 162.371094 298.714844 C 162.371094 298.152344 162.410156 297.589844 162.496094 297.027344 C 162.582031 296.464844 162.707031 295.910156 162.875 295.355469 C 163.042969 294.804688 163.253906 294.257812 163.503906 293.71875 C 163.753906 293.179688 164.042969 292.648438 164.371094 292.128906 C 164.703125 291.609375 165.070312 291.097656 165.476562 290.601562 C 165.882812 290.105469 166.328125 289.621094 166.804688 289.152344 C 167.285156 288.683594 167.796875 288.234375 168.34375 287.796875 C 168.890625 287.363281 169.46875 286.945312 170.078125 286.546875 C 170.6875 286.148438 171.328125 285.769531 171.992188 285.414062 C 172.660156 285.054688 173.351562 284.71875 174.070312 284.40625 C 174.785156 284.09375 175.523438 283.804688 176.285156 283.539062 C 177.042969 283.273438 177.824219 283.03125 178.621094 282.816406 C 179.414062 282.601562 180.226562 282.410156 181.050781 282.246094 C 181.875 282.082031 182.710938 281.945312 183.558594 281.835938 C 184.402344 281.726562 185.253906 281.644531 186.113281 281.589844 C 186.972656 281.535156 187.832031 281.507812 188.691406 281.507812 C 189.554688 281.507812 190.414062 281.535156 191.273438 281.589844 C 192.132812 281.644531 192.984375 281.726562 193.828125 281.835938 C 194.675781 281.945312 195.507812 282.082031 196.335938 282.246094 C 197.160156 282.410156 197.96875 282.601562 198.765625 282.816406 C 199.5625 283.03125 200.34375 283.273438 201.101562 283.539062 C 201.863281 283.804688 202.601562 284.09375 203.316406 284.40625 C 204.035156 284.71875 204.726562 285.054688 205.394531 285.414062 C 206.058594 285.769531 206.699219 286.148438 207.308594 286.546875 C 207.917969 286.945312 208.496094 287.363281 209.042969 287.796875 C 209.589844 288.234375 210.101562 288.683594 210.582031 289.152344 C 211.058594 289.621094 211.503906 290.105469 211.910156 290.601562 C 212.316406 291.097656 212.683594 291.609375 213.011719 292.128906 C 213.34375 292.648438 213.632812 293.179688 213.882812 293.71875 C 214.132812 294.257812 214.34375 294.804688 214.511719 295.355469 C 214.679688 295.910156 214.804688 296.464844 214.890625 297.027344 C 214.976562 297.589844 215.015625 298.152344 215.015625 298.714844 C 215.015625 299.277344 214.976562 299.839844 214.890625 300.402344 C 214.804688 300.960938 214.679688 301.519531 214.511719 302.070312 C 214.34375 302.625 214.132812 303.167969 213.882812 303.710938 C 213.632812 304.25 213.34375 304.777344 213.011719 305.300781 C 212.683594 305.820312 212.316406 306.328125 211.910156 306.824219 C 211.503906 307.324219 211.058594 307.804688 210.582031 308.273438 C 210.101562 308.742188 209.589844 309.195312 209.042969 309.628906 C 208.496094 310.066406 207.917969 310.484375 207.308594 310.882812 C 206.699219 311.28125 206.058594 311.660156 205.394531 312.015625 C 204.726562 312.375 204.035156 312.707031 203.316406 313.023438 C 202.601562 313.335938 201.863281 313.625 201.101562 313.890625 C 200.34375 314.15625 199.5625 314.394531 198.765625 314.613281 C 197.96875 314.828125 197.160156 315.015625 196.335938 315.179688 C 195.507812 315.34375 194.675781 315.480469 193.828125 315.589844 C 192.984375 315.699219 192.132812 315.785156 191.273438 315.839844 C 190.414062 315.894531 189.554688 315.921875 188.691406 315.921875 Z M 188.691406 315.921875 " fill-opacity="1" fill-rule="nonzero"/></g><g clip-path="url(#050462ba39)"><g clip-path="url(#75ef4f4e4b)"><path fill="#a359a0" d="M 272.339844 298.710938 L 102.648438 298.710938 L 102.648438 64.886719 L 272.339844 64.886719 Z M 272.339844 298.710938 " fill-opacity="1" fill-rule="nonzero"/></g></g><g clip-path="url(#e335c79568)"><g clip-path="url(#95d578e229)"><path fill="#800080" d="M 272.339844 62.21875 L 102.648438 62.21875 L 102.648438 12.769531 L 272.339844 12.769531 Z M 272.339844 62.21875 " fill-opacity="1" fill-rule="nonzero"/></g></g><g clip-path="url(#dd789760a4)"><path fill="#800080" d="M 239.144531 74.816406 C 239.144531 76.46875 239.066406 78.117188 238.902344 79.761719 C 238.742188 81.40625 238.5 83.039062 238.175781 84.65625 C 237.855469 86.277344 237.453125 87.878906 236.972656 89.460938 C 236.496094 91.042969 235.9375 92.59375 235.304688 94.121094 C 234.671875 95.648438 233.96875 97.140625 233.1875 98.597656 C 232.410156 100.054688 231.5625 101.46875 230.644531 102.84375 C 229.726562 104.21875 228.742188 105.542969 227.695312 106.820312 C 226.648438 108.097656 225.539062 109.320312 224.371094 110.488281 C 223.203125 111.65625 221.980469 112.765625 220.703125 113.8125 C 219.425781 114.863281 218.097656 115.84375 216.726562 116.761719 C 215.351562 117.679688 213.9375 118.527344 212.480469 119.308594 C 211.019531 120.085938 209.53125 120.792969 208.003906 121.425781 C 206.476562 122.058594 204.921875 122.613281 203.339844 123.09375 C 201.761719 123.570312 200.160156 123.972656 198.539062 124.296875 C 196.917969 124.617188 195.285156 124.859375 193.640625 125.023438 C 191.996094 125.183594 190.347656 125.265625 188.695312 125.265625 C 187.042969 125.265625 185.394531 125.183594 183.753906 125.023438 C 182.109375 124.859375 180.476562 124.617188 178.855469 124.296875 C 177.234375 123.972656 175.632812 123.570312 174.050781 123.09375 C 172.472656 122.613281 170.917969 122.058594 169.390625 121.425781 C 167.863281 120.792969 166.371094 120.085938 164.914062 119.308594 C 163.457031 118.527344 162.042969 117.679688 160.667969 116.761719 C 159.296875 115.84375 157.96875 114.863281 156.691406 113.8125 C 155.414062 112.765625 154.191406 111.65625 153.023438 110.488281 C 151.855469 109.320312 150.746094 108.097656 149.699219 106.820312 C 148.652344 105.542969 147.667969 104.21875 146.75 102.84375 C 145.832031 101.46875 144.984375 100.054688 144.203125 98.597656 C 143.425781 97.140625 142.71875 95.648438 142.089844 94.121094 C 141.457031 92.59375 140.898438 91.042969 140.421875 89.460938 C 139.941406 87.878906 139.539062 86.277344 139.21875 84.65625 C 138.894531 83.039062 138.652344 81.40625 138.492188 79.761719 C 138.328125 78.117188 138.246094 76.46875 138.246094 74.816406 C 138.246094 73.164062 138.328125 71.515625 138.492188 69.871094 C 138.652344 68.226562 138.894531 66.59375 139.21875 64.972656 C 139.539062 63.351562 139.941406 61.753906 140.421875 60.171875 C 140.898438 58.589844 141.457031 57.035156 142.089844 55.507812 C 142.71875 53.984375 143.425781 52.492188 144.203125 51.035156 C 144.984375 49.578125 145.832031 48.160156 146.75 46.789062 C 147.667969 45.414062 148.652344 44.089844 149.699219 42.8125 C 150.746094 41.535156 151.855469 40.3125 153.023438 39.144531 C 154.191406 37.972656 155.414062 36.867188 156.691406 35.816406 C 157.96875 34.769531 159.296875 33.785156 160.667969 32.867188 C 162.042969 31.949219 163.457031 31.101562 164.914062 30.324219 C 166.371094 29.542969 167.863281 28.839844 169.390625 28.207031 C 170.917969 27.574219 172.472656 27.019531 174.050781 26.539062 C 175.632812 26.058594 177.234375 25.65625 178.855469 25.335938 C 180.476562 25.011719 182.109375 24.769531 183.753906 24.609375 C 185.394531 24.449219 187.042969 24.367188 188.695312 24.367188 C 190.347656 24.367188 191.996094 24.449219 193.640625 24.609375 C 195.285156 24.769531 196.917969 25.011719 198.539062 25.335938 C 200.160156 25.65625 201.761719 26.058594 203.339844 26.539062 C 204.921875 27.019531 206.476562 27.574219 208.003906 28.207031 C 209.53125 28.839844 211.019531 29.542969 212.480469 30.324219 C 213.9375 31.101562 215.351562 31.949219 216.726562 32.867188 C 218.097656 33.785156 219.425781 34.769531 220.703125 35.816406 C 221.980469 36.867188 223.203125 37.972656 224.371094 39.144531 C 225.539062 40.3125 226.648438 41.535156 227.695312 42.8125 C 228.742188 44.089844 229.726562 45.414062 230.644531 46.789062 C 231.5625 48.160156 232.410156 49.578125 233.1875 51.035156 C 233.96875 52.492188 234.671875 53.984375 235.304688 55.507812 C 235.9375 57.035156 236.496094 58.589844 236.972656 60.171875 C 237.453125 61.753906 237.855469 63.351562 238.175781 64.972656 C 238.5 66.59375 238.742188 68.226562 238.902344 69.871094 C 239.066406 71.515625 239.144531 73.164062 239.144531 74.816406 Z M 239.144531 74.816406 " fill-opacity="1" fill-rule="nonzero"/></g><g clip-path="url(#db3177c52f)"><path fill="#a359a0" d="M 229.246094 74.816406 C 229.246094 76.183594 229.179688 77.550781 229.046875 78.910156 C 228.910156 80.269531 228.710938 81.621094 228.445312 82.960938 C 228.179688 84.304688 227.847656 85.628906 227.449219 86.9375 C 227.050781 88.246094 226.59375 89.53125 226.070312 90.792969 C 225.546875 92.058594 224.960938 93.292969 224.316406 94.496094 C 223.671875 95.703125 222.972656 96.875 222.210938 98.011719 C 221.453125 99.148438 220.636719 100.246094 219.769531 101.300781 C 218.902344 102.359375 217.984375 103.371094 217.019531 104.339844 C 216.050781 105.304688 215.039062 106.222656 213.984375 107.089844 C 212.925781 107.957031 211.828125 108.769531 210.691406 109.53125 C 209.554688 110.289062 208.382812 110.992188 207.179688 111.636719 C 205.972656 112.28125 204.738281 112.863281 203.476562 113.386719 C 202.210938 113.910156 200.925781 114.371094 199.617188 114.769531 C 198.308594 115.164062 196.984375 115.496094 195.644531 115.761719 C 194.300781 116.03125 192.953125 116.230469 191.589844 116.363281 C 190.230469 116.5 188.867188 116.566406 187.5 116.566406 C 186.132812 116.566406 184.769531 116.5 183.40625 116.363281 C 182.046875 116.230469 180.695312 116.03125 179.355469 115.761719 C 178.011719 115.496094 176.6875 115.164062 175.378906 114.769531 C 174.070312 114.371094 172.785156 113.910156 171.523438 113.386719 C 170.257812 112.863281 169.023438 112.28125 167.820312 111.636719 C 166.613281 110.992188 165.441406 110.289062 164.304688 109.53125 C 163.167969 108.769531 162.070312 107.957031 161.015625 107.089844 C 159.957031 106.222656 158.945312 105.304688 157.980469 104.339844 C 157.011719 103.371094 156.09375 102.359375 155.226562 101.300781 C 154.359375 100.246094 153.546875 99.148438 152.785156 98.011719 C 152.027344 96.875 151.324219 95.703125 150.679688 94.496094 C 150.035156 93.292969 149.453125 92.058594 148.929688 90.792969 C 148.40625 89.53125 147.945312 88.246094 147.546875 86.9375 C 147.152344 85.628906 146.820312 84.304688 146.554688 82.960938 C 146.285156 81.621094 146.085938 80.269531 145.953125 78.910156 C 145.816406 77.550781 145.75 76.183594 145.75 74.816406 C 145.75 73.449219 145.816406 72.085938 145.953125 70.726562 C 146.085938 69.363281 146.285156 68.015625 146.554688 66.671875 C 146.820312 65.332031 147.152344 64.007812 147.546875 62.699219 C 147.945312 61.390625 148.40625 60.105469 148.929688 58.839844 C 149.453125 57.578125 150.035156 56.34375 150.679688 55.136719 C 151.324219 53.933594 152.027344 52.761719 152.785156 51.625 C 153.546875 50.488281 154.359375 49.390625 155.226562 48.332031 C 156.09375 47.277344 157.011719 46.265625 157.980469 45.296875 C 158.945312 44.332031 159.957031 43.414062 161.015625 42.546875 C 162.070312 41.679688 163.167969 40.863281 164.304688 40.105469 C 165.441406 39.347656 166.613281 38.644531 167.820312 38 C 169.023438 37.355469 170.257812 36.769531 171.523438 36.246094 C 172.785156 35.722656 174.070312 35.265625 175.378906 34.867188 C 176.6875 34.46875 178.011719 34.136719 179.355469 33.871094 C 180.695312 33.605469 182.046875 33.40625 183.40625 33.269531 C 184.769531 33.136719 186.132812 33.070312 187.5 33.070312 C 188.867188 33.070312 190.230469 33.136719 191.589844 33.269531 C 192.953125 33.40625 194.300781 33.605469 195.644531 33.871094 C 196.984375 34.136719 198.308594 34.46875 199.617188 34.867188 C 200.925781 35.265625 202.210938 35.722656 203.476562 36.246094 C 204.738281 36.769531 205.972656 37.355469 207.179688 38 C 208.382812 38.644531 209.554688 39.347656 210.691406 40.105469 C 211.828125 40.863281 212.925781 41.679688 213.984375 42.546875 C 215.039062 43.414062 216.050781 44.332031 217.019531 45.296875 C 217.984375 46.265625 218.902344 47.277344 219.769531 48.332031 C 220.636719 49.390625 221.453125 50.488281 222.210938 51.625 C 222.972656 52.761719 223.671875 53.933594 224.316406 55.136719 C 224.960938 56.34375 225.546875 57.578125 226.070312 58.839844 C 226.59375 60.105469 227.050781 61.390625 227.449219 62.699219 C 227.847656 64.007812 228.179688 65.332031 228.445312 66.671875 C 228.710938 68.015625 228.910156 69.363281 229.046875 70.726562 C 229.179688 72.085938 229.246094 73.449219 229.246094 74.816406 Z M 229.246094 74.816406 " fill-opacity="1" fill-rule="nonzero"/></g></svg>